<svg xmlns="http://www.w3.org/2000/svg" xmlns:xlink="http://www.w3.org/1999/xlink" width="139" zoomAndPan="magnify" viewBox="0 0 104.25 30.000001" height="40" preserveAspectRatio="xMidYMid meet" version="1.0"><defs><g/><clipPath id="fe08891198"><path d="M 16.023438 0 L 47.234375 0 L 47.234375 28.945312 L 16.023438 28.945312 Z M 16.023438 0 " clip-rule="nonzero"/></clipPath></defs><g clip-path="url(#fe08891198)"><path fill="#d3dee2" d="M 46.386719 27.332031 L 44.183594 23.128906 L 43.570312 21.949219 L 40.089844 21.949219 L 40.703125 23.128906 L 41.972656 25.5625 L 21.273438 25.5625 L 22.542969 23.128906 L 28.054688 12.621094 L 30.21875 8.5 L 31.628906 5.828125 L 33.324219 9.0625 L 35.066406 5.746094 L 31.628906 -0.808594 L 28.488281 5.175781 L 26.324219 9.296875 L 19.070312 23.128906 L 16.863281 27.332031 L 16.023438 28.941406 L 47.234375 28.941406 Z M 46.386719 27.332031 " fill-opacity="1" fill-rule="nonzero"/></g><g fill="#d3dee2" fill-opacity="1"><g transform="translate(34.205322, 16.239138)"><g><path d="M 3.671875 -5.921875 C 3.984375 -5.117188 4.195312 -4.316406 4.3125 -3.515625 C 4.425781 -2.722656 4.484375 -1.914062 4.484375 -1.09375 C 4.484375 -0.320312 4.359375 0.441406 4.109375 1.203125 C 3.867188 1.972656 3.578125 2.65625 3.234375 3.25 C 2.890625 3.851562 2.53125 4.347656 2.15625 4.734375 C 1.78125 5.117188 1.460938 5.3125 1.203125 5.3125 C 1.078125 5.3125 0.898438 5.273438 0.671875 5.203125 C 0.441406 5.128906 0.203125 5.03125 -0.046875 4.90625 C -0.304688 4.789062 -0.554688 4.664062 -0.796875 4.53125 C -1.035156 4.394531 -1.226562 4.265625 -1.375 4.140625 L -1.28125 4 C -0.613281 3.875 -0.00390625 3.648438 0.546875 3.328125 C 1.097656 3.003906 1.5625 2.632812 1.9375 2.21875 C 2.320312 1.800781 2.617188 1.34375 2.828125 0.84375 C 3.046875 0.351562 3.15625 -0.117188 3.15625 -0.578125 C 3.15625 -1.046875 3.046875 -1.664062 2.828125 -2.4375 C 2.617188 -3.207031 2.285156 -3.957031 1.828125 -4.6875 C 2.117188 -4.925781 2.441406 -5.15625 2.796875 -5.375 C 3.160156 -5.601562 3.453125 -5.785156 3.671875 -5.921875 Z M 3.671875 -5.921875 "/></g></g></g><g fill="#d3dee2" fill-opacity="1"><g transform="translate(39.461616, 16.239138)"><g><path d="M 4.71875 0 L 3.484375 0 C 2.984375 0 2.578125 -0.0078125 2.265625 -0.03125 C 1.960938 -0.0625 1.789062 -0.0859375 1.75 -0.109375 L 1.75 -1.75 C 1.75 -2.40625 1.734375 -3.191406 1.703125 -4.109375 C 1.679688 -5.035156 1.640625 -5.96875 1.578125 -6.90625 C 1.523438 -7.851562 1.445312 -8.75 1.34375 -9.59375 C 1.25 -10.445312 1.128906 -11.148438 0.984375 -11.703125 C 1.035156 -11.753906 1.144531 -11.828125 1.3125 -11.921875 C 1.476562 -12.023438 1.648438 -12.125 1.828125 -12.21875 C 2.015625 -12.320312 2.203125 -12.421875 2.390625 -12.515625 C 2.585938 -12.609375 2.738281 -12.671875 2.84375 -12.703125 C 2.90625 -12.523438 2.96875 -12.203125 3.03125 -11.734375 C 3.09375 -11.265625 3.125 -10.695312 3.125 -10.03125 L 3.125 -1.75 L 4.71875 -1.75 Z M 4.71875 0 "/></g></g></g><g fill="#d3dee2" fill-opacity="1"><g transform="translate(44.170376, 16.239138)"><g><path d="M 10.25 0 L 10 0 C 9.707031 0 9.425781 -0.109375 9.15625 -0.328125 C 8.894531 -0.546875 8.5625 -0.921875 8.15625 -1.453125 L 8.046875 -1.421875 C 8.035156 -1.316406 7.984375 -1.1875 7.890625 -1.03125 C 7.796875 -0.875 7.6875 -0.71875 7.5625 -0.5625 C 7.445312 -0.40625 7.332031 -0.269531 7.21875 -0.15625 C 7.113281 -0.0507812 7.035156 0 6.984375 0 L 0 0 C -0.113281 0 -0.222656 -0.0351562 -0.328125 -0.109375 C -0.441406 -0.179688 -0.546875 -0.269531 -0.640625 -0.375 C -0.742188 -0.488281 -0.820312 -0.609375 -0.875 -0.734375 C -0.925781 -0.867188 -0.953125 -0.988281 -0.953125 -1.09375 C -0.953125 -1.238281 -0.890625 -1.382812 -0.765625 -1.53125 C -0.640625 -1.675781 -0.382812 -1.75 0 -1.75 L 6.046875 -1.75 C 6.285156 -1.75 6.488281 -1.757812 6.65625 -1.78125 C 6.820312 -1.8125 6.90625 -1.894531 6.90625 -2.03125 C 6.90625 -2.15625 6.753906 -2.378906 6.453125 -2.703125 C 6.148438 -3.035156 5.742188 -3.394531 5.234375 -3.78125 C 4.734375 -4.175781 4.164062 -4.578125 3.53125 -4.984375 C 2.894531 -5.398438 2.238281 -5.773438 1.5625 -6.109375 C 1.445312 -6.160156 1.320312 -6.300781 1.1875 -6.53125 C 1.050781 -6.757812 0.984375 -6.9375 0.984375 -7.0625 C 0.984375 -7.226562 1.082031 -7.476562 1.28125 -7.8125 C 1.488281 -8.15625 1.765625 -8.519531 2.109375 -8.90625 C 2.523438 -9.394531 2.96875 -9.84375 3.4375 -10.25 C 3.914062 -10.664062 4.378906 -11.03125 4.828125 -11.34375 C 5.273438 -11.65625 5.703125 -11.894531 6.109375 -12.0625 C 6.523438 -12.238281 6.875 -12.328125 7.15625 -12.328125 C 7.332031 -12.328125 7.503906 -12.253906 7.671875 -12.109375 C 7.835938 -11.960938 7.984375 -11.78125 8.109375 -11.5625 C 8.234375 -11.351562 8.34375 -11.132812 8.4375 -10.90625 C 8.53125 -10.6875 8.601562 -10.503906 8.65625 -10.359375 L 8.546875 -10.328125 C 8.378906 -10.378906 8.195312 -10.40625 8 -10.40625 C 7.6875 -10.40625 7.304688 -10.34375 6.859375 -10.21875 C 6.410156 -10.101562 5.9375 -9.921875 5.4375 -9.671875 C 4.9375 -9.429688 4.429688 -9.125 3.921875 -8.75 C 3.410156 -8.375 2.925781 -7.929688 2.46875 -7.421875 C 3.195312 -7.003906 3.820312 -6.613281 4.34375 -6.25 C 4.863281 -5.894531 5.347656 -5.535156 5.796875 -5.171875 C 6.242188 -4.804688 6.675781 -4.410156 7.09375 -3.984375 C 7.507812 -3.554688 7.972656 -3.0625 8.484375 -2.5 C 8.773438 -2.1875 9.019531 -1.984375 9.21875 -1.890625 C 9.425781 -1.796875 9.660156 -1.75 9.921875 -1.75 L 10.25 -1.75 Z M 10.25 0 "/></g></g></g><g fill="#d3dee2" fill-opacity="1"><g transform="translate(54.409202, 16.239138)"><g><path d="M 3.234375 -8.21875 L 4.140625 -9.375 L 5.71875 -8.046875 C 5.5625 -7.796875 5.398438 -7.570312 5.234375 -7.375 C 5.085938 -7.207031 4.945312 -7.050781 4.8125 -6.90625 C 4.675781 -6.769531 4.566406 -6.703125 4.484375 -6.703125 C 4.285156 -6.703125 4.050781 -6.816406 3.78125 -7.046875 C 3.507812 -7.273438 3.289062 -7.484375 3.125 -7.671875 C 2.976562 -7.472656 2.804688 -7.257812 2.609375 -7.03125 C 2.421875 -6.8125 2.28125 -6.703125 2.1875 -6.703125 C 2.082031 -6.703125 1.957031 -6.75 1.8125 -6.84375 C 1.664062 -6.9375 1.515625 -7.039062 1.359375 -7.15625 C 1.203125 -7.28125 1.054688 -7.40625 0.921875 -7.53125 C 0.796875 -7.65625 0.707031 -7.753906 0.65625 -7.828125 L 1.828125 -9.375 Z M 7.421875 0 L 7.234375 0 C 6.609375 0 6.078125 -0.289062 5.640625 -0.875 C 5.492188 -0.632812 5.316406 -0.425781 5.109375 -0.25 C 4.898438 -0.0820312 4.738281 0 4.625 0 L 0 0 C -0.113281 0 -0.222656 -0.0351562 -0.328125 -0.109375 C -0.441406 -0.179688 -0.546875 -0.269531 -0.640625 -0.375 C -0.742188 -0.488281 -0.820312 -0.609375 -0.875 -0.734375 C -0.925781 -0.867188 -0.953125 -0.988281 -0.953125 -1.09375 C -0.953125 -1.238281 -0.890625 -1.382812 -0.765625 -1.53125 C -0.640625 -1.675781 -0.382812 -1.75 0 -1.75 L 4.109375 -1.75 C 4.328125 -1.75 4.460938 -1.785156 4.515625 -1.859375 C 4.578125 -1.929688 4.609375 -2.015625 4.609375 -2.109375 C 4.609375 -2.273438 4.582031 -2.492188 4.53125 -2.765625 C 4.488281 -3.035156 4.4375 -3.316406 4.375 -3.609375 C 4.320312 -3.898438 4.269531 -4.171875 4.21875 -4.421875 C 4.175781 -4.671875 4.15625 -4.847656 4.15625 -4.953125 C 4.15625 -5.066406 4.171875 -5.148438 4.203125 -5.203125 C 4.234375 -5.253906 4.320312 -5.3125 4.46875 -5.375 C 4.644531 -5.445312 4.867188 -5.523438 5.140625 -5.609375 C 5.421875 -5.703125 5.679688 -5.785156 5.921875 -5.859375 C 5.929688 -5.347656 5.9375 -4.820312 5.9375 -4.28125 C 5.9375 -3.75 5.972656 -3.191406 6.046875 -2.609375 C 6.085938 -2.179688 6.210938 -1.929688 6.421875 -1.859375 C 6.628906 -1.785156 6.863281 -1.75 7.125 -1.75 L 7.421875 -1.75 Z M 7.421875 0 "/></g></g></g><g fill="#d3dee2" fill-opacity="1"><g transform="translate(61.82824, 16.239138)"><g><path d="M 4.515625 2.515625 C 4.367188 2.734375 4.222656 2.9375 4.078125 3.125 C 3.953125 3.269531 3.8125 3.40625 3.65625 3.53125 C 3.5 3.65625 3.347656 3.71875 3.203125 3.71875 C 3.097656 3.71875 2.972656 3.675781 2.828125 3.59375 C 2.691406 3.519531 2.550781 3.425781 2.40625 3.3125 C 2.257812 3.207031 2.125 3.09375 2 2.96875 C 1.882812 2.851562 1.800781 2.769531 1.75 2.71875 L 2.9375 1.234375 Z M 0 0 C -0.113281 0 -0.222656 -0.0351562 -0.328125 -0.109375 C -0.441406 -0.179688 -0.546875 -0.269531 -0.640625 -0.375 C -0.742188 -0.488281 -0.820312 -0.609375 -0.875 -0.734375 C -0.925781 -0.867188 -0.953125 -0.988281 -0.953125 -1.09375 C -0.953125 -1.238281 -0.890625 -1.382812 -0.765625 -1.53125 C -0.640625 -1.675781 -0.382812 -1.75 0 -1.75 L 3.265625 -1.75 C 3.515625 -1.75 3.640625 -1.832031 3.640625 -2 C 3.640625 -2.414062 3.578125 -2.898438 3.453125 -3.453125 C 3.328125 -4.015625 3.160156 -4.5625 2.953125 -5.09375 C 3.023438 -5.144531 3.140625 -5.210938 3.296875 -5.296875 C 3.453125 -5.378906 3.613281 -5.46875 3.78125 -5.5625 C 3.945312 -5.65625 4.101562 -5.738281 4.25 -5.8125 C 4.40625 -5.882812 4.539062 -5.9375 4.65625 -5.96875 C 4.96875 -5.4375 5.203125 -4.960938 5.359375 -4.546875 C 5.523438 -4.128906 5.609375 -3.898438 5.609375 -3.859375 C 5.609375 -3.804688 5.535156 -3.710938 5.390625 -3.578125 C 5.242188 -3.441406 5.097656 -3.328125 4.953125 -3.234375 C 4.972656 -3.085938 4.988281 -2.90625 5 -2.6875 C 5.007812 -2.46875 5.015625 -2.253906 5.015625 -2.046875 C 5.015625 -1.972656 5.015625 -1.890625 5.015625 -1.796875 C 5.015625 -1.710938 5.003906 -1.644531 4.984375 -1.59375 C 4.953125 -1.457031 4.878906 -1.296875 4.765625 -1.109375 C 4.660156 -0.929688 4.539062 -0.757812 4.40625 -0.59375 C 4.28125 -0.4375 4.15625 -0.296875 4.03125 -0.171875 C 3.914062 -0.0546875 3.832031 0 3.78125 0 Z M 0 0 "/></g></g></g><g fill="#d3dee2" fill-opacity="1"><g transform="translate(67.878451, 16.239138)"><g><path d="M 1.171875 -11.609375 C 1.460938 -11.828125 1.75 -12.023438 2.03125 -12.203125 C 2.320312 -12.390625 2.625 -12.554688 2.9375 -12.703125 C 3.238281 -12.191406 3.484375 -11.710938 3.671875 -11.265625 C 3.867188 -10.816406 3.96875 -10.492188 3.96875 -10.296875 C 3.863281 -10.078125 3.703125 -9.894531 3.484375 -9.75 C 3.273438 -9.601562 3.097656 -9.492188 2.953125 -9.421875 C 2.992188 -9.003906 3.023438 -8.441406 3.046875 -7.734375 C 3.078125 -7.035156 3.101562 -6.273438 3.125 -5.453125 C 3.144531 -4.628906 3.15625 -3.785156 3.15625 -2.921875 C 3.164062 -2.066406 3.171875 -1.273438 3.171875 -0.546875 C 3.066406 -0.347656 2.867188 -0.179688 2.578125 -0.046875 C 2.285156 0.078125 2.03125 0.175781 1.8125 0.25 C 1.8125 0.0390625 1.804688 -0.316406 1.796875 -0.828125 C 1.785156 -1.347656 1.765625 -1.960938 1.734375 -2.671875 C 1.710938 -3.390625 1.6875 -4.164062 1.65625 -5 C 1.625 -5.84375 1.585938 -6.671875 1.546875 -7.484375 C 1.503906 -8.296875 1.445312 -9.0625 1.375 -9.78125 C 1.3125 -10.507812 1.242188 -11.117188 1.171875 -11.609375 Z M 4.40625 3.71875 C 4.40625 3.8125 4.382812 3.929688 4.34375 4.078125 C 4.3125 4.222656 4.242188 4.316406 4.140625 4.359375 L 0.359375 5.3125 C 0.390625 5.113281 0.421875 4.929688 0.453125 4.765625 C 0.484375 4.597656 0.535156 4.429688 0.609375 4.265625 L 1.75 4.03125 C 1.582031 3.96875 1.441406 3.867188 1.328125 3.734375 C 1.210938 3.597656 1.15625 3.46875 1.15625 3.34375 C 1.15625 3.125 1.210938 2.882812 1.328125 2.625 C 1.441406 2.375 1.59375 2.128906 1.78125 1.890625 C 1.976562 1.648438 2.203125 1.453125 2.453125 1.296875 C 2.703125 1.140625 2.953125 1.0625 3.203125 1.0625 C 3.460938 1.0625 3.640625 1.15625 3.734375 1.34375 C 3.835938 1.539062 3.890625 1.738281 3.890625 1.9375 C 3.890625 2.125 3.867188 2.253906 3.828125 2.328125 L 3.75 2.359375 C 3.71875 2.316406 3.648438 2.269531 3.546875 2.21875 C 3.441406 2.164062 3.316406 2.140625 3.171875 2.140625 C 2.898438 2.140625 2.613281 2.253906 2.3125 2.484375 C 2.007812 2.710938 1.859375 2.941406 1.859375 3.171875 C 1.859375 3.304688 1.972656 3.421875 2.203125 3.515625 C 2.429688 3.617188 2.726562 3.671875 3.09375 3.671875 C 3.4375 3.671875 3.71875 3.601562 3.9375 3.46875 C 4.15625 3.332031 4.296875 3.265625 4.359375 3.265625 C 4.390625 3.265625 4.40625 3.332031 4.40625 3.46875 C 4.40625 3.601562 4.40625 3.6875 4.40625 3.71875 Z M 4.40625 3.71875 "/></g></g></g></svg>